<?xml version="1.0" encoding="utf-8"?>
<!-- Generator: Adobe Illustrator 24.0.1, SVG Export Plug-In . SVG Version: 6.00 Build 0)  -->
<svg version="1.1" id="Layer_1" xmlns="http://www.w3.org/2000/svg" xmlns:xlink="http://www.w3.org/1999/xlink" x="0px" y="0px"
	 viewBox="0 0 1120.9 295.5" style="enable-background:new 0 0 1120.9 295.5;" xml:space="preserve">
<style type="text/css">
	.st0{fill:#2E4057;}
	.st1{fill:#1B9AAA;}
	.st2{fill:#FFFFFF;}
</style>
<polygon class="st0" points="8.6,10.7 115.3,11.3 115.3,78.2 8.6,78.2 "/>
<rect x="123" y="11.2" class="st1" width="987" height="274"/>
<path class="st2" d="M164.7,60.4h26.5l12.3,134.5h0.5l13-134.5h30l13,134.5h0.5l12.3-134.5h23.8l-17.8,175h-34.3l-12.5-118h-0.5
	l-12.5,118h-36.5L164.7,60.4z M310.4,60.4h75v25h-47.5v46.2h37.8v25h-37.8v53.8h47.5v25h-75V60.4z M401.2,60.4h41.5
	c14.2,0,24.5,3.3,31,10c6.5,6.5,9.8,16.6,9.8,30.3v7c0,9-1.5,16.3-4.5,22c-2.8,5.7-7.3,9.8-13.3,12.3v0.5
	c13.7,4.7,20.5,16.8,20.5,36.5v15c0,13.5-3.6,23.8-10.8,31c-7,7-17.3,10.5-31,10.5h-43.3V60.4z M439.5,131.7c5.5,0,9.6-1.4,12.3-4.2
	c2.8-2.8,4.3-7.6,4.3-14.3v-9.7c0-6.3-1.2-10.9-3.5-13.8c-2.2-2.8-5.7-4.3-10.5-4.3h-13.3v46.2H439.5z M444.5,210.4
	c4.8,0,8.4-1.3,10.8-3.8c2.3-2.7,3.5-7.2,3.5-13.5v-15.3c0-8-1.4-13.5-4.3-16.5c-2.7-3.2-7.2-4.8-13.5-4.8h-12.3v53.8H444.5z
	 M542.3,60.4h42c13.7,0,23.9,3.7,30.8,11c6.8,7.3,10.3,18.1,10.3,32.3v88.5c0,14.2-3.4,24.9-10.3,32.3c-6.8,7.3-17.1,11-30.8,11h-42
	V60.4z M583.8,210.4c4.5,0,7.9-1.3,10.3-4c2.5-2.7,3.8-7,3.8-13v-91c0-6-1.3-10.3-3.8-13c-2.3-2.7-5.8-4-10.3-4h-14v125H583.8z
	 M643.9,60.4h75v25h-47.5v46.2h37.8v25h-37.8v53.8h47.5v25h-75V60.4z M770.9,237.9c-13.3,0-23.4-3.8-30.3-11.3
	c-6.8-7.7-10.3-18.6-10.3-32.8v-10h26v12c0,11.3,4.8,17,14.3,17c4.7,0,8.2-1.3,10.5-4c2.5-2.8,3.8-7.3,3.8-13.5
	c0-7.3-1.7-13.8-5-19.3c-3.3-5.7-9.5-12.4-18.5-20.3c-11.3-10-19.3-19-23.8-27c-4.5-8.2-6.8-17.3-6.8-27.5c0-13.8,3.5-24.5,10.5-32
	c7-7.7,17.2-11.5,30.5-11.5c13.2,0,23.1,3.8,29.8,11.5c6.8,7.5,10.3,18.3,10.3,32.5v7.3h-26v-9c0-6-1.2-10.3-3.5-13
	c-2.3-2.8-5.8-4.3-10.3-4.3c-9.2,0-13.8,5.6-13.8,16.8c0,6.3,1.7,12.2,5,17.7c3.5,5.5,9.8,12.2,18.8,20c11.5,10,19.4,19.1,23.8,27.3
	c4.3,8.2,6.5,17.8,6.5,28.8c0,14.3-3.6,25.3-10.8,33C794.7,234.1,784.4,237.9,770.9,237.9z M828.2,60.4h27.5v175h-27.5V60.4z
	 M915.3,237.9c-13.3,0-23.5-3.8-30.5-11.3c-7-7.7-10.5-18.6-10.5-32.8v-92c0-14.2,3.5-25,10.5-32.5c7-7.7,17.2-11.5,30.5-11.5
	c13.3,0,23.5,3.8,30.5,11.5c7,7.5,10.5,18.3,10.5,32.5v15h-26v-16.7c0-11.5-4.8-17.3-14.3-17.3s-14.3,5.8-14.3,17.3v95.7
	c0,11.3,4.8,17,14.3,17s14.3-5.7,14.3-17v-34.3h-13.8v-25h39.8v57.3c0,14.2-3.5,25.1-10.5,32.8C938.8,234.2,928.6,237.9,915.3,237.9
	z M974,60.4h34.5l26.8,104.7h0.5V60.4h24.5v175H1032l-33-127.7h-0.5v127.7H974V60.4z"/>
<polygon class="st1" points="8.6,284.1 8.6,232.2 63.8,232.2 63.8,139.4 115.8,139.6 115,284.1 "/>
<polygon class="st0" points="115.1,132.2 57.2,131.7 56.6,225.6 8.6,225.6 8.7,85.5 115.3,86 "/>
</svg>
